<?xml version="1.0" encoding="UTF-8" ?>
<!DOCTYPE svg PUBLIC "-//W3C//DTD SVG 1.1//EN" "http://www.w3.org/Graphics/SVG/1.1/DTD/svg11.dtd">
<svg width="835pt" height="969pt" viewBox="0 0 835 969" version="1.1" xmlns="http://www.w3.org/2000/svg">
<g id="#000000ff">
<path fill="#000000" opacity="1.00" d=" M 777.43 2.38 C 778.48 0.70 780.95 1.16 782.62 1.49 C 789.20 3.54 794.13 8.65 799.98 12.04 C 808.60 17.49 815.90 24.72 823.04 31.93 C 827.74 36.63 831.72 41.99 835.00 47.77 L 835.00 58.19 C 827.62 70.22 822.15 83.31 816.08 96.03 C 799.75 131.17 785.99 167.43 773.09 203.94 C 759.35 242.78 747.13 282.14 735.84 321.75 C 717.01 386.53 702.18 452.55 693.09 519.41 C 706.33 524.04 718.21 532.10 727.98 542.10 C 715.23 542.97 702.47 543.70 689.71 544.58 C 684.68 588.19 682.29 632.12 682.87 676.02 C 684.02 740.30 693.16 804.82 714.10 865.77 C 725.75 900.39 742.65 933.25 764.19 962.76 C 765.62 964.57 766.62 966.66 766.77 969.00 L 759.06 969.00 C 738.69 961.95 720.04 950.81 702.32 938.70 C 689.15 929.54 675.66 919.55 667.83 905.18 C 652.13 876.96 641.41 846.19 634.26 814.75 C 624.80 773.89 620.76 731.92 620.08 690.03 C 619.55 644.42 622.82 598.85 627.75 553.53 C 598.29 558.96 568.97 565.20 539.95 572.65 C 521.61 577.31 503.51 582.85 485.14 587.41 C 462.47 593.23 439.58 598.13 416.59 602.49 C 382.35 645.37 346.85 687.26 310.06 727.98 C 268.22 774.07 225.07 819.14 178.19 860.16 C 153.83 881.43 128.51 901.67 101.42 919.37 C 97.81 921.77 93.22 921.45 89.07 921.42 C 77.84 920.79 66.73 918.74 55.78 916.26 C 39.70 912.34 23.62 907.67 8.81 900.15 C 6.00 898.40 1.12 895.77 2.72 891.82 C 35.04 876.56 63.89 855.08 91.63 832.76 C 120.68 809.28 148.31 784.10 175.34 758.33 C 225.38 710.46 273.18 660.28 319.67 608.96 C 304.06 608.27 288.50 606.69 273.06 604.32 C 253.86 601.22 234.60 597.85 216.10 591.71 C 202.33 587.21 188.67 581.66 177.02 572.91 C 168.88 566.86 160.50 559.98 156.77 550.24 C 155.20 546.36 155.06 541.39 158.21 538.25 C 160.69 535.51 164.82 535.67 168.02 536.90 C 205.46 550.30 244.29 560.66 284.07 563.58 C 309.74 565.67 335.61 565.78 361.25 563.29 C 413.71 502.53 464.92 440.71 514.85 377.86 C 564.58 315.17 612.62 251.15 658.93 185.89 C 700.95 126.42 742.31 66.26 777.43 2.38 M 464.81 544.53 C 495.43 537.23 526.13 530.15 557.13 524.64 C 582.10 520.55 607.37 518.51 632.65 517.66 C 638.61 468.03 647.28 418.73 658.84 370.10 C 669.70 324.48 681.46 279.08 694.62 234.07 C 619.52 338.66 542.49 441.85 464.81 544.53 Z" />
</g>
</svg>
