<svg height="589pt" viewBox="0 0 480 589" width="480pt" xmlns="http://www.w3.org/2000/svg"><path d="m225.47 352.46c2.84-.01 5.67.34 8.49.71 5.07.67 9.34 3.7 13.7 6.13 2.36 1.67 4.47-1.11 6.42-2.16 7.55-4.12 16.47-5.47 24.98-4.4 10.06.36 18.66 6.2 26.89 11.37 7.86 4.89 15.26 10.82 24.22 13.61 4.78 1.25 10.65.26 13.64-4.02.59-3.35.6-7.15-1.49-10.02-1.7-2.89-4.69-5.45-8.28-4.79-2.53-.13-4.02 2.73-6.51 2.59-.01-.31-.04-.93-.05-1.24 3.42-6.39 12.56-8.1 18.48-4.25 2.97 1.95 5.43 4.63 7.54 7.47 4.59 7.1 4.46 16.87-.02 23.99-4.3 8.52-13.33 13.51-22.26 15.8-4.65 1.61-9.6 1.73-14.4 2.59-3.94.68-7.8-.82-11.74-.78-4.65 0-9.33-.2-13.86-1.35-12.73-2.91-25.92-6.28-36.37-14.54-1.85-1.2-3.43-3.25-5.78-3.37-2.25 1.05-4.03 2.83-6 4.3-5.8 4.53-12.86 6.92-19.7 9.37-8.14 2.86-16.6 4.8-25.16 5.83-5.68 1.22-11.49.59-17.25.79-4.34.14-8.46-1.4-12.62-2.41-4.94-1.22-9.68-3.27-13.92-6.08-6.72-4.95-11.22-13.17-10.86-21.62-.68-8.37 4.48-17.18 12.61-19.85 4.34-.59 9.24-.81 13.09 1.66 1.04.52 2.47 2.3.65 2.81-2.61-.33-5.26-1.54-7.89-.62-3.06.58-4.78 3.62-5.66 6.34-.77 3.53-.92 7.76 1.52 10.7 2.89 2.98 7.56 2.12 11.02.75 11.68-4.65 22.07-11.86 33.12-17.76 7.16-4.1 15.06-7.48 23.45-7.55z" fill="#0f0f0f"/></svg>