<svg height="960pt" viewBox="0 0 960 960" width="960pt" xmlns="http://www.w3.org/2000/svg"><path d="m412.88 282.67c10 6.98 18.64 15.64 27.89 23.55 24.09 20.93 47.38 42.81 72.03 63.08 6.44-3.4 14.11-6.92 21.31-3.44 8.48 4.5 15.74 15.68 10.96 25.21-4.9 5.36-13.69 5.23-20.1 2.96-8.88-2.83-11.07-13.18-16.28-19.85-4.22-8.1-13.67-10.17-21.7-12.42-3.04-.71-6.18-2.32-9.33-1.28-7.27 2.13-15.02 3.44-21.31 7.91-7.27 5.59-9.1 15.27-15.16 21.82-5.05 5.06-12.5 5.4-19.19 4.79-4.04-.45-7.67-3.59-8.38-7.65-1.5-8.67 4.58-16.83 11.64-21.11 7.35-3.15 15.45-1.09 21.85 3.06 7.97-6.24 15.58-12.93 23.02-19.79-15.68-15.86-32.13-31.01-46.84-47.8-5.16-5.29-8.63-11.92-10.41-19.04m65.03 64.33c-.81 1.93-1.61 3.87-2.38 5.82 2.97.35 5.97.35 8.94 0-.78-1.95-1.57-3.89-2.38-5.82-1.4 0-2.79 0-4.18 0m-47.45 23.51c-4.79 1.26-7.99 5.52-10.45 9.51-2.03 3.02-.93 8.06 2.59 9.42 9.02 3.34 21.08-4.87 18.09-15.05-.98-4.34-6.62-5.39-10.23-3.88m92.93-.2c-2.56.59-4.39 3.09-4.38 5.67-1.37 9.56 9.94 16.54 18.36 13.43 3.62-1.25 4.54-6.38 2.64-9.39-2.95-5.98-9.43-11.84-16.62-9.71z" fill="#2b5973"/><path d="m512.21 310.21c10.56-9.4 20.84-19.16 32.14-27.69-1.46 9.93-8.21 17.9-15.07 24.75-13.31 13.2-26.33 26.68-39.84 39.68-2.9-2.74-5.81-5.43-8.8-8.06 9.78-10.36 21.09-19.07 31.57-28.68z" fill="#2b5973"/><path d="m565.97 369.13c92.72 6.12 184.71 22.3 274.05 47.8 8.95 2.82 18.29 4.64 26.79 8.74-2.86 1.18-6.03 2.52-9.05.65-73.68-21.94-149.19-37.95-225.61-46.6-22.73-3.13-45.69-4.11-68.48-6.63.75-1.33 1.52-2.65 2.3-3.96z" fill="#2b5973"/><path d="m285.68 381.72c36.1-5.25 72.35-10.11 108.83-11.59.21 1.24.42 2.49.64 3.73-92.28 5.33-183.69 22.33-272.49 47.75-7.81 2.07-15.54 4.57-23.52 6.01-.02-.88-.06-2.64-.08-3.52 61.19-18.18 123.41-33.17 186.62-42.38z" fill="#2b5973"/><path d="m556.81 381.42c2.53-3.55 6.37-6.57 11.17-4.71 78 5.07 155.4 17.98 231.15 37.16 19.65 5.36 39.42 10.39 58.74 16.85-2.56 2.58-5.99 4.82-9.7 3.11-83.95-25.4-170.62-41.61-257.99-49.11-11.12-1.18-22.38-1.06-33.37-3.3z" fill="#2b5973"/><path d="m387.45 377.52c4.02.65 9.68-2.41 12.83 1.16 1.06 1.08 2.03 2.26 3 3.43-99.09 6.2-197.34 24.24-292.34 53.01-1.76-1.28-3.52-2.56-5.27-3.84 35.09-12.36 71.45-20.72 107.72-28.86 57.39-12.12 115.58-20.47 174.06-24.9z" fill="#2b5973"/><path d="m204.24 462.88c-1.85-2.41 3.54-2.45 1.78-.01-.44 0-1.34 0-1.78.01z" fill="#2b5973"/><path d="m406.73 537.52c-1.78-3.01 3.67-.98.66.41z" fill="#2b5973"/><path d="m158.26 597.33c-.44 2.61-3.91-.74-1.18-.95.3.24.88.71 1.18.95z" fill="#2b5973"/><path d="m174.85 653.71c20.09-2.61 37.83-15.84 58.62-14.32 8.84.33 16.59 5.34 23.09 10.94-5.62-1.28-11.39-2.45-17.18-1.79-18.9 4.75-36.33 16.02-56.38 15.45-9.09-.44-16.84-5.72-22.42-12.55 4.64 1.3 9.4 2.47 14.27 2.27z" fill="#2b5973"/><path d="m702.39 650.47c6.95-6.61 15.63-11.99 25.64-11.37 19.7-1.76 36.57 11.44 56.01 11.64 4.64.44 9.13-.85 13.52-2.14-4.49 5.37-10.01 10.19-16.94 12.01-12.08 3.1-24.42-.57-35.95-4.21-13.38-4.4-28.21-11.65-42.28-5.93z" fill="#2b5973"/><g fill="#e01f2f"><path d="m351.7 433.75c8.09-1.95 16.72-3.61 24.96-1.39 8.29 2.04 15.83 7.36 20.32 14.66 4.97 6.3 5.02 14.68 6.51 22.21-7.59 2.57-15.48 3.73-23.46 4.05-3.78-6.31-5.7-15.22-14.02-16.95-8 .22-11.35 9.46-10.71 16.35 1.53 13.15 12.5 22.04 21.59 30.42 11.36 9.96 23.25 21.4 26.08 36.96 4.06 14.93.99 32.46-10.61 43.3-9.49 10.85-25.69 9.8-38.51 6.88-17.83-4.58-28.09-23.73-27.73-41.14.44-4.67 5.74-4.09 9.31-4.71 4.48-.05 10.28-2.25 14.21.91 2.96 5.48 3.66 12.25 8.1 16.96 3.41 4.77 11.04 4.39 15.01.48 6.29-4.63 6.22-14.12 3.11-20.61-12.16-17.84-32.17-29.16-42.86-48.14-5.12-11.07-7.44-24.04-3.8-35.94 2.97-11.05 11.42-20.88 22.5-24.3z"/><path d="m782.43 433.45c11.81-1.97 24.8 1.02 33.26 9.85 9.22 8.94 11.16 22.44 11.29 34.67.16 23.35.03 46.7.04 70.05-.1 10.5-1.49 22.01-8.91 30.07-11.97 14.81-35.46 18.77-51.34 8.13-10.37-6.74-16.48-18.98-16.56-31.23-.58-26.66-.09-53.34-.26-80.01-.44-9.04 1.4-18.69 7.15-25.9 6.06-8.1 14.43-16.07 25.33-15.63m2.01 27.03c-3.64.72-7.15 3.58-7.33 7.5-.65 23.66.44 47.36-.48 71.03-.36 6.13.06 12.29 1.11 18.34 2.32 5.77 9.63 8.75 15.3 5.69 5.57-3.04 6.3-10.37 6.02-16.01-.28-24.98.54-49.98-.42-74.94.88-7.77-6.61-14.79-14.2-11.61z"/><path d="m131.03 452.01c5.54-9.46 15.74-16.83 26.98-16.89 8-.08 17.25-1.58 24.01 3.86 6.56 4.54 12.92 10.16 16.55 17.4 3.3 9.13 2.58 19.14 2.54 28.68.2 2.77-2.02 5.1-4.72 5.35-6.78.76-13.65.65-20.43-.03-1.11-9.59 1.08-21.78-8.32-28.02-7.3-3.99-15.34 2.72-16.06 10.06-1.27 24.81-.59 49.73-.41 74.58.6 5.44 0 13.07 5.82 16 4.63 3.74 12.02 1.83 14.95-3.1 5.05-7.56.96-17.53 4.35-25.59 4.08-3.16 9.96-1.9 14.72-2.42 3.36-.54 8.92.25 9.55 4.49.94 12.46 1.89 25.77-3.81 37.35-7.5 13.69-23.79 21.57-39.21 18.85-12.52-2.09-23.18-10.96-29.11-21.95-2.75-7.52-2.13-15.78-2.49-23.62.05-23.34.05-46.68-.04-70.02.02-8.45.11-17.76 5.13-24.98z"/><path d="m521.37 436.39c7.42-2.24 15.42-1.11 23.08-.83 1.99 14.39 1.59 28.95 1.6 43.44-.13 28.33-.04 56.67.03 85-.21 8.71.19 17.61-1.83 26.16-6.38.49-12.79 1.02-19.17.66-4.49-.57-6.76-5.67-5.93-9.81-.46-43.34.05-86.69-.23-130.03.84-4.62-1.31-10.92 2.45-14.59z"/><path d="m578.94 436.4c6.92-.96 13.98-2.04 20.97-1.27 4.14.46 5.66 5.22 4.95 8.86.67 36.66-.4 73.35.29 110.02.33 3.01-.2 7.85 3.2 9.57 11.4 2.05 23.05-.42 34.43 1.69.88.83 1.5 1.93 1.82 3.11.85 7.56 1.31 15.68-2.07 22.73-20.92-.31-41.87.48-62.75-.89-1.81-51.24-.22-102.55-.84-153.82z"/><path d="m669.85 437.31c8.41-2.75 18.18-4.04 26.3.16-.34 30.17 0 60.35-.24 90.53.17 11.71-.44 23.61 1.83 35.17 12.42 1.63 24.97.67 37.43 1.72.62 7.89.89 15.8 1.08 23.72-6.13 2.27-12.81 2.24-19.24 2.46-13.34.15-26.69.32-40.01-.33-2.53-.18-4.84-1.26-7.15-2.17.25-50.42.24-100.84 0-151.26z"/><path d="m248.2 436.2c10.6-.67 21.23-.23 31.82.58 1.16 4.54 2.49 9.06 3.33 13.69 5.85 36.15 12.24 72.2 18.1 108.35 2.08 10.27 3.73 20.69 3.02 31.21-6.81.57-13.65 1.16-20.49.93-2.21-.15-4.67-1.29-5.22-3.63-2.23-8.09-2.14-16.61-4.48-24.68-1.19-4.33-5.57-7.79-10.3-6.67-3.71-.16-8.97.03-11.04 3.82-2.87 9.2-2.97 19.06-5.98 28.22-2.32 4.61-8.99 2.34-12.96 3.17-3.91-.68-8.97.93-12.25-1.95-2.6-2.71-.84-7-.69-10.1 7.33-43.35 15.09-86.63 22.1-130.03.99-4.48 1.61-9.53 5.04-12.91m15.07 66.81c-5.18 8.01-6.05 17.96-5.68 27.26 4.22-.06 8.46-.17 12.66-.78-1.66-8.93-1.67-18.77-6.98-26.48z"/><path d="m420.82 442.97c-1.41-4.18 2.78-8.81 7.15-6.91 21.89-.43 43.78.2 65.68-.18 2.74 7.9 2.41 16.52 1.18 24.69-6.25 1-12.8.56-18.88 2.4-4.1 1.26-5.08 6.32-4.79 10.02-.96 39.04.99 78.14-.94 117.17-7.65.63-15.32.95-22.98 1.17-1.8-5.92-2.26-12.17-2.31-18.31-.19-33.34.49-66.69-.09-100.02-.22-3.23.1-8.51-3.8-9.91-6.37-1.41-12.92-1.68-19.34-2.8-.79-5.73-1.85-11.53-.88-17.32z"/><path d="m609.93 444.97c3.35 2.24 7.44 5.07 5.96 10.01.31 35.36.16 70.74-.07 106.11-2.21-.59-4.53-1.03-6.49-2.27-2.36-28.21-.97-56.55-1.38-84.82.49-9.66-.88-19.64 1.98-29.03z"/><path d="m700.4 445.83c2.25.87 4.47 1.86 6.66 2.91-.33 37.4.41 74.81-.42 112.21-2.24-.53-4.46-1.12-6.67-1.72.3-37.8-.5-75.61.43-113.4z"/><path d="m287.27 446.47c2.16 1.1 4.78 1.83 6.21 3.95 1.84 3.86 1.96 8.29 2.9 12.41 5.18 31.02 10.67 62 15.84 93.03 2.43 14.49 5.42 28.94 6.09 43.66-7.42 2.7-15.54 2.81-23.33 2.52-3.47-.3-5.34-3.51-7.04-6.12 6.52-1 13.6-.46 19.75-3.25 3.93-3.18 1.15-9.36 1.21-13.53-6.71-40.21-13.26-80.44-20.34-120.58-.71-4-1.21-8.03-1.29-12.09z"/><path d="m499.81 446.83c2.13.44 4.25.9 6.38 1.35-.09 6.08 1.52 12.59-.57 18.45-4.04 6.56-13.25 4.27-19.49 5.82-3.84.19-2.99 5.09-3.62 7.98-1.69 38.38.64 76.89-.96 115.27-1.92 6.98-10.95 6.59-16.56 6.43-5.31 1.96-7.85-2.6-9.93-6.18 5.84-1.5 18.35.56 19.43-8.34 1.44-38.52-.1-77.12.53-115.66.1-1.64.44-3.27 1.13-4.77 6.6-2.4 14.02-.98 20.53-3.5 3.34-4.74 2-11.32 3.13-16.85z"/><path d="m549.53 446.73c2.2.38 4.4.81 6.59 1.25 2.03 44.3.23 88.69 1.01 133.02-.52 6.03 1.25 13.22-2.61 18.53-4.03 3.19-9.77 2.23-14.51 2.52-5.11 1.48-8.27-2.67-9.96-6.58 6.39-1.16 13.06-1.31 19.14-3.77-.05-48.32-.82-96.67.34-144.97z"/><path d="m404.78 471.8c2.46-3.92 2.19-8.88 3.59-13.22 3.08 6.04 4.48 12.68 4.98 19.41-6.38 1.7-12.7 3.97-19.38 3.98-2.8 0-4.64-2.43-6.63-4.03 5.86-1.83 12.15-2.83 17.44-6.14z"/><path d="m359.76 464.83c.87-3.28 4.65-5.56 7.95-4.62 2.54 1.73 3.91 4.65 5.82 7-2.61.86-5.21 1.76-7.8 2.7-.02 5.63.21 11.25.5 16.89l-.16-.38c-.34-.44-1-1.33-1.33-1.78-5.67-4.81-6.83-12.93-4.98-19.81z"/><path d="m829.44 459.26c7.81 7.28 8.35 18.76 8.51 28.71.11 23.68.25 47.37-.03 71.06-1.5 14.11-8.15 28.7-20.98 35.86-10.79 6.48-23.89 5.35-35.94 4.39.01-.72.03-2.17.04-2.9 11.88-.28 24.68-2.3 33.96-10.39 9.04-6.84 14.79-17.59 15.2-28.96 1.72-23.96.46-48.03.83-72.03.38-8.64-.88-17.17-1.59-25.74z"/><path d="m204.24 462.88c.44-.01 1.34-.01 1.78-.01l1.09-.18c3.88 10.56 4.55 22.04 3.73 33.19-1.1 3.97-6.15 5.51-9.83 5.16-4.14-.14-8.55.89-12.57-.45-1.46-1.37-2.43-3.16-3.51-4.81 5.84-1.2 12.12-.86 17.67-3.26 1.25-.44 1.71-1.72 1.95-2.9.94-8.9.3-17.86-.31-26.74z"/><path d="m782.35 463.69c1.89-.18 5.58.66 8.04.84-2.7 7.83-2.3 16.29-2.49 24.46.06 23.74.19 47.48.05 71.23-2.07-.4-4.12-.8-6.16-1.22-2.85-17.18-1.56-34.67-1.86-52 .27-14.43-1.13-29.17 2.42-43.31z"/><path d="m157.13 468.12c2.65-1.62 5.53-2.73 8.63-3.31-1.87 6.93-3.96 13.88-3.72 21.16-.51 25.32.63 50.67-.56 75.99-2.69-2.16-5.69-4.65-5.97-8.36-1.3-23.17-.18-46.41-.62-69.61.37-5.29-.83-11.15 2.24-15.87z"/><path d="m432.15 464.42c2.73.95 5.57 1.63 8.2 2.94.16 1.48.49 4.44.65 5.92-2.63-.62-5.49-.93-7.74-2.53-1.17-1.88-.87-4.23-1.11-6.33z"/><path d="m262.75 515.37c1.39 3.65 2.23 7.45 3.14 11.25-1.58.02-3.16.03-4.74.05.49-3.78.99-7.55 1.6-11.3z"/><path d="m406.73 537.52.66.41c2.25 1.08 3.44 3.36 4.13 5.65 3.74 12.29 2.41 26.08-3.51 37.45-4.91 7.28-11.25 13.87-19.34 17.6-11.51 4.44-24.9 2.94-35.34-3.5 11.07-1.26 23.48 3.04 33.62-3.21 8.46-5.06 14.86-13.27 18.68-22.27 3.27-10.34 2.86-21.53 1.1-32.13z"/><path d="m205.25 542.79c2.01.39 4.01.81 6.02 1.23 1.91 13.35-.31 27.36-7.17 39.04-4.79 7.38-12.99 11.91-20.98 15.07-7.97 1.27-17.74 4.45-24.86-.8-.3-.24-.88-.71-1.18-.95 17.13 2.74 35.8-6.22 43.35-22.01 4.93-9.69 4.38-21.02 4.82-31.58z"/><path d="m355.45 548.25c2.08.93 4.46 1.52 6.11 3.21 2.26 3.01 1.56 7.18 2.32 10.61-4.47-3.36-7.48-8.33-8.43-13.82z"/><path d="m256.1 560.65c3.84-.17 7.67-.35 11.53-.18 1.84 1.4 2.93 3.5 4.13 5.43-3.16 1.44-8.04 1.57-9.32 5.43-2.35 8.17-1.94 17.06-5.12 25.02-2.92 6.41-11.63 5.6-17.32 5.7-4.83 1.58-8.08-2.51-9.11-6.49 5.38-.89 10.85-1.35 16.15-2.64 2.86-.72 3.72-3.84 4.39-6.33 1.96-8.57 3.07-17.3 4.67-25.94z"/><path d="m649.31 574.99c.9 1.64 5.71 1.17 5.81 3.96.95 5.29 1.65 10.99.2 16.27-1.42 5.13-7.55 7.02-12.32 6.6-15.66.42-31.37.58-47.02.09-3.7-.11-5.54-3.64-7.1-6.45 17.92-2.23 36.01-.64 53.99-1.8 1.77-.35 3.75-1.49 4.22-3.37 1.09-5.05 1.55-10.19 2.22-15.3z"/><path d="m740.51 575.75c2.1.51 4.58 1.34 6.76 1.98-1.43 7.34 3.58 19.97-6.21 23.25-17.52 2.27-35.45.83-53.11 1.02-4.16.31-6.56-3.36-7.94-6.72 18.43-3.12 37.26.81 55.67-1.67 5.1-3.96 3.26-12.12 4.83-17.86z"/><path d="m268.02 627.88c11.87-.27 23.85-1.16 35.65.52 5.11.73 8.96 4.88 10.28 9.77 1.65 6.12-2.59 11.06-5.63 15.81 6.17 4.36 10.74 12.47 7.74 20.04-.73 4.48-4.59 7.86-8.61 9.54-12.59 4.2-26.13 2.08-39.14 2.16-.51-19.28-.3-38.57-.29-57.84m12.92 9.83c.13 4.39.26 8.77.44 13.19 5.31-.13 10.7.17 15.98-.61 4.66-1.06 3.37-7.72 4.55-10.8-6.88-1.52-13.98-1.38-20.97-1.78m-.05 22c.15 5.39.31 10.78.47 16.19 6.26-.54 13.03.88 19.02-1.5 5.65-2.38 4.55-11.88-1.01-13.73-5.98-1.62-12.38-.45-18.48-.96z"/><path d="m345.25 630.13c1.68-4.98 8.02-2.38 11.65-2.8 4.02.63 4.46 5.8 6.22 8.63 6.78 16.77 15.42 32.79 21.44 49.86-2.93.06-8.8.17-11.73.23-2.09-4.27-3.91-8.67-5.81-13.03-9.69-.05-19.38-.04-29.06-.01-2.46 4.05-3.46 9.42-7.35 12.34-2.56.26-7.68.79-10.23 1.05 2.46-8.89 6.98-17.01 10.64-25.42 4.85-10.23 8.75-20.93 14.23-30.85m-1.59 30.8c5.95 0 11.89-.03 17.85-.05-2.29-7.23-5.03-14.34-8.25-21.21-4.09 6.64-6.97 13.93-9.6 21.26z"/><path d="m391.03 627.81c10.92-.8 21.97-.86 32.86.36 11.35 2 16.81 16.15 12.43 26.17-2.54 4.51-6.64 7.81-11.03 10.38 4.91 6.87 10.01 13.61 14.69 20.64-5 .26-9.97.53-14.96.76-4.07-5.67-7.55-11.78-12.09-17.08-1.53-3.4-5.41-3.39-8.38-4.36-.35 6.98-.51 13.99-.84 20.99-4.14.02-8.26.06-12.39.08-.53-19.31-.32-38.63-.29-57.94m12.9 9.87c.12 5.75.25 11.5.43 17.27 5.23-.07 10.57.2 15.69-.93 6.86-2.01 6.99-14.44-.36-15.51-5.25-.49-10.5-.76-15.76-.83z"/><path d="m450.25 627.42c12.03.44 24.11.09 36.11 1.27 4.95.58 8.24 4.99 9.59 9.48 1.61 6.24-2.79 11.22-5.7 16.19 4.37 3.84 8.85 8.3 8.74 14.65-.31 6.83-4.86 13.5-11.67 15.31-12.07 3.01-24.71 1.39-37 1.45-.5-19.45-.49-38.91-.07-58.35m12.75 10.29c0 4.53-.02 9.04.01 13.6 5.43-.32 10.93-.23 16.33-1.07 5.71-1.23 5.07-10.84-.43-11.97-5.3-.37-10.6-.55-15.91-.56m-.11 21.96c.15 5.4.3 10.82.47 16.24 5.65-.11 11.37.23 16.98-.66 5.87-1.7 7.65-10.51 2.29-13.85-6.16-2.67-13.26-.97-19.74-1.73z"/><path d="m506.22 627.3c13.79-.4 27.59-.41 41.39 0 .12 2.66.36 7.98.48 10.64-9.92.06-19.84-.03-29.76.28-.06 4.11-.08 8.26-.08 12.4 8.8.28 17.61.45 26.42.76v11.24c-8.78.29-17.57.46-26.34.76-.03 3.75-.03 7.52 0 11.3 10.9.29 21.82.33 32.74.36-.11 2.67-.34 7.99-.46 10.65-14.87.4-29.74.33-44.6.31.03-19.57-.22-39.14.21-58.7z"/><path d="m560.02 627.97c8.36-.34 16.72-.48 25.09-.55 5.02.26 10.58.46 14.63 3.88 7.35 5.48 8.77 16.38 4.79 24.29-2.17 4.2-6.45 6.61-10.29 9.07 4.62 7.13 10.25 13.59 14.45 20.99-4.91.11-9.76.26-14.65.41-4.09-5.64-7.86-11.51-12.25-16.92-1.41-3.45-5.31-3.47-8.23-4.47-.37 6.96-.52 13.96-.85 20.94-4.25.14-8.47.3-12.7.46-.02-19.37-.03-38.74.01-58.1m12.91 9.72c.11 5.74.25 11.5.43 17.27 4.93-.11 9.91-.01 14.8-.81 7.11-1.18 8.01-13.16 1.22-15.46-5.38-1.16-11.01-.59-16.45-1z"/><path d="m619.03 627.77c4.3-.19 8.62-.35 12.92.01.06 19.3.22 38.59-.18 57.89-4.17.02-8.31.06-12.45.08-.53-19.32-.33-38.65-.29-57.98z"/><path d="m663.21 628.02c4.83.26 13.08-3.17 15.41 3.3 7.75 18.23 16.37 36.1 23.75 54.5-2.89.06-8.67.19-11.56.26-2.55-4.2-4.54-8.7-6.72-13.09-9.58-.02-19.15-.01-28.72.1-2.09 3.91-3.28 8.55-6.47 11.76-3.45 1.48-7.44.8-11.1 1.05 7.75-19.6 17.47-38.36 25.41-57.88m-2.11 32.64c6.09.19 12.19.22 18.31.29-2.58-7.38-5.69-14.57-8.99-21.65-3.59 6.89-6.5 14.12-9.32 21.36z"/></g></svg>