<svg height="589pt" viewBox="0 0 480 589" width="480pt" xmlns="http://www.w3.org/2000/svg"><g fill="#0f0f0f"><path d="m158.51 233.46c9.74-13.03 26.23-20.7 42.48-19.62 11.46.57 22.54 5.55 31.04 13.21 9.77 9.26 15.8 22.42 16.05 35.92.12 7.15-1.68 14.2-4.37 20.79-6.81 15.44-21.86 27.16-38.73 29.16-2.34.33-4.63.95-6.98 1.1-6.87-1.07-13.92-1.81-20.26-4.87-6.38-3.16-12.46-7.22-17.17-12.61-3.47-4.42-6.71-9.12-8.73-14.4-3.6-8.5-4.25-18.03-2.82-27.09-4.04 2.62-10.12 3.4-13.77-.27-4.6-3.9-4.35-12.37.93-15.57 2.62-1.65 6.05-2.98 9.02-1.37 3.12.94 4.92 3.75 6.68 6.28 2.14-3.6 3.96-7.4 6.63-10.66m29.86-16.04c-8.83 1.77-16.9 6.38-23.48 12.45-11.15 11-16.49 27.82-13.09 43.17 2.88 15.65 14.68 29.17 29.52 34.71 7.85 2.76 16.46 4.27 24.68 2.34 16.81-2.5 31.61-15.17 36.86-31.3 2.93-8.23 3.13-17.29 1.33-25.79-4.14-19.21-21.62-34.62-41.22-36.25-4.86-.25-9.8-.32-14.6.67m-48.02 21.92c-2.74.4-5.06 2.39-6.11 4.92-.42 2.11-.4 4.34.1 6.44 1.75 3.27 5.46 5.75 9.27 4.9 3.42-.86 6.68-3.84 6.59-7.6.75-5.24-4.73-10.09-9.85-8.66z"/><path d="m116.42 249.38c1.67-.57 3.52-.6 5.24-.19 1.87 1.24 3.37 3.37 3.11 5.71-.08 2.57-2.14 4.62-4.45 5.46-1.82.87-3.78-.43-5.14-1.58-2.91-2.44-2.2-7.81 1.24-9.4z"/><path d="m105.35 268.26c4.25-1.45 9.26 3.88 6.91 7.95-1.38 4.61-9.23 4.72-10.45-.03-1.52-3.12.35-6.85 3.54-7.92z"/><path d="m104.41 291.4c2.57-1.17 5.44.02 7.25 1.97 1.82 1.61 1.13 4.49.21 6.42-1.66 3.5-7.07 3.7-9.28.64-2.6-2.7-1.13-7.24 1.82-9.03z"/><path d="m104.39 314.33c3.03-1.22 6.93.14 8.04 3.33 1.2 2.92-.68 6.27-3.45 7.46-2.69 1.49-5.97-.54-7.16-3.05-1.32-2.74-.11-6.33 2.57-7.74z"/><path d="m104.35 337.24c2.33-.8 5.32-.53 6.98 1.48 2.68 2.55 1.49 7.41-1.67 9-2.9 2.16-7.25-.07-8.09-3.34-.96-2.68.51-5.64 2.78-7.14z"/><path d="m104.29 360.14c1.75-.44 3.64-.49 5.39.03 3.14 1.74 4.07 6.32 1.63 9.03-1.11 1.78-3.36 1.93-5.24 1.81-2.5.2-4.1-2.26-4.65-4.39-.66-2.51.89-5.05 2.87-6.48z"/><path d="m104.26 383.19c1.77-.51 3.69-.4 5.49-.04 3.05 1.71 4.07 6.44 1.47 8.99-1.51 2.16-4.52 2.22-6.81 1.47-3.94-1.91-4.28-8.59-.15-10.42z"/><path d="m107.16 405.49c1.4-.01 2.75.66 3.8 1.56 2.8 2.59 1.93 7.8-1.35 9.58-1.67.49-3.56.59-5.2-.05-2.88-1.52-4.08-5.56-2.26-8.34.88-1.89 3.07-2.61 5.01-2.75z"/><path d="m106.27 428.33c2.75-.29 5.46 1.63 6.25 4.26 1.33 3.48-1.86 7.59-5.52 7.4-3.43.17-6.35-3.3-5.64-6.64.33-2.54 2.48-4.5 4.91-5.02z"/><path d="m105.44 451.41c1.48-.8 3.21-.13 4.53.69 3.18 1.95 3.63 7.13.71 9.52-2.36 2.05-6.69 1.88-8.27-1.05-2.56-3.1-.52-7.88 3.03-9.16z"/><path d="m105.42 474.42c2.42-.69 5.46.3 6.54 2.7 1.8 2.79.37 6.89-2.62 8.19-3.2 1.71-7.78-.86-8.04-4.48-.53-2.84 1.48-5.56 4.12-6.41z"/><path d="m102.77 498.76c2.21-2.3 6.27-2.19 8.46.08 1.97 2.31 1.88 5.98-.09 8.26-1.26.89-2.74 1.4-4.14 2.03-1.6-.73-3.36-1.27-4.64-2.51-1.59-2.32-1.51-5.75.41-7.86z"/><path d="m105.31 520.11c2.32-.47 5.21.03 6.36 2.36 1.83 2.79 1.09 7.79-2.51 8.71-3.51 1.86-7.99-1.36-7.91-5.18-.15-2.62 1.65-5 4.06-5.89z"/><path d="m104.43 543.4c4.31-2.24 9.6 2.48 8.03 6.98-.93 4.54-8.29 5.57-10.31 1.45-1.9-2.77-.61-6.9 2.28-8.43z"/></g></svg>