<svg height="589pt" viewBox="0 0 480 589" width="480pt" xmlns="http://www.w3.org/2000/svg"><path d="m151.08 60.13c18.38-17.99 44.28-27.75 69.92-27.16 19.33.03 38.67.03 58 0 25.63-.56 51.53 9.11 69.96 27.05 16.65 15.64 27.58 37.31 29.95 60.04.57 5.56 1.15 11.16.72 16.75-.34 3.82-.21 7.78-1.7 11.39-8.59-7.15-19.58-10.16-30.18-12.88-20.61-4.58-41.67-6.72-62.71-8.11-14.35-.27-28.69-1.33-43.05-1.05-6.34.13-12.65.88-19 .84-8.49 0-16.94.96-25.4 1.55-13.84 1.04-27.57 3.18-41.17 5.9-7.58 1.76-15.22 3.56-22.41 6.59-4.08 1.63-7.29 4.97-11.62 6-.79-9.45.58-18.98-.81-28.38-.28-2.73.58-5.4 1.11-8.05 3.97-19.21 14.08-37.08 28.39-50.48z" fill="#101010"/><path d="m129.96 150.87c31.44-7.62 63.79-10.65 96.04-12.19 14.33-.04 28.66 0 43-.01 7.35-.06 14.67.79 22.01 1.15 27.81 1.91 55.62 5.4 82.61 12.55 2.49.76 4.93 1.72 7.42 2.49 2.87.82 5.81 1.4 8.6 2.48 9.68 3.6 19.48 7.74 27.15 14.85 2.84 2.66 5.68 5.82 6.23 9.83.31 2.85.42 5.85-.51 8.6-1.72 3.92-4.62 7.26-8.05 9.79-8.39 6.37-18.18 10.61-28.12 13.92-2.94.97-5.84 2.2-8.96 2.46-1.74-2.9-3.4-5.91-5.84-8.3-4.68-4.98-10.85-8.16-16.93-11.08-15.64-7.11-32.55-10.9-49.44-13.64-8.03-1.02-16.05-2.35-24.15-2.69-4.69-.22-9.32-1.23-14.02-1.11-9 .08-17.99-.18-26.99 0-5.81.13-11.65-.32-17.43.54-4.9.71-9.87.6-14.77 1.28-22.23 2.55-44.68 6.49-65.17 15.82-8.89 4.17-18 9.71-22.23 19-2.81.15-5.41-1.19-8.05-1.94-7.76-2.45-15.31-5.6-22.37-9.65-5.49-3.29-11-7.17-14.11-12.93-2.01-3.41-2-7.67-1.06-11.4 1.99-5.17 6.17-9.17 10.61-12.31 7.59-5.44 16.39-8.79 25.11-11.95 3.04-1.1 6.16-1.9 9.3-2.64 3.41-.83 6.74-1.97 10.12-2.92z" fill="#101010"/><path d="m121.58 118.66c1.39 9.4.02 18.93.81 28.38 4.33-1.03 7.54-4.37 11.62-6 7.19-3.03 14.83-4.83 22.41-6.59 13.6-2.72 27.33-4.86 41.17-5.9 8.46-.59 16.91-1.55 25.4-1.55 6.35.04 12.66-.71 19-.84 14.36-.28 28.7.78 43.05 1.05 21.04 1.39 42.1 3.53 62.71 8.11 10.6 2.72 21.59 5.73 30.18 12.88 1.09 2.19 1.97 4.49 3.11 6.66-2.49-.77-4.93-1.73-7.42-2.49-26.99-7.15-54.8-10.64-82.61-12.55-7.34-.36-14.66-1.21-22.01-1.15-14.34.01-28.67-.03-43 .01-32.25 1.54-64.6 4.57-96.04 12.19-3.38.95-6.71 2.09-10.12 2.92.71-2.25 1.82-4.52 1.5-6.94-1.11-9.33-1.86-18.95.24-28.19z" fill="#222"/></svg>