<svg viewBox="0 0 1280.2 1066.9" xmlns="http://www.w3.org/2000/svg" xmlns:xlink="http://www.w3.org/1999/xlink"><linearGradient id="a" gradientUnits="userSpaceOnUse" x1="640.2439" x2="640.2439" y1="738.97131" y2="332.77731"><stop offset="0" stop-color="#20b038"/><stop offset="1" stop-color="#60d66a"/></linearGradient><linearGradient id="b" gradientUnits="userSpaceOnUse" x1="640.24518" x2="640.24518" y1="746.25159" y2="325.49149"><stop offset="0" stop-color="#f9f9f9"/><stop offset="1" stop-color="#fff"/></linearGradient><g transform="translate(-300.48623 -254.13463)"><image height="497" opacity=".06" transform="translate(392.9272 292.8789)" width="496" xlink:href="14D73113.png"/><image height="440" opacity=".15" transform="translate(420.9272 319.8789)" width="438" xlink:href="14D73111.png"/><path d="m430.8 746.3 29.6-108c-18.2-31.6-27.9-67.5-27.8-104.2 0-115 93.6-208.5 208.6-208.5 55.8 0 108.2 21.7 147.5 61.1 39.4 39.4 61.1 91.8 61 147.5 0 115-93.6 208.5-208.6 208.5h-.1c-34.9 0-69.2-8.8-99.7-25.4zm115.7-66.8 6.3 3.8c26.6 15.8 57.1 24.1 88.2 24.2h.1c95.5 0 173.3-77.7 173.3-173.3 0-46.3-18-89.8-50.7-122.6s-76.3-50.8-122.6-50.8c-95.6 0-173.4 77.7-173.4 173.3 0 32.7 9.1 64.6 26.5 92.2l4.1 6.6-17.5 63.9z" fill="#fff"/><path d="m438.1 739 28.6-104.3c-17.6-30.5-26.9-65.2-26.9-100.6 0-111 90.4-201.3 201.3-201.3 53.9 0 104.4 21 142.4 59s58.9 88.6 58.9 142.4c0 111-90.4 201.3-201.3 201.3h-.1c-33.7 0-66.8-8.5-96.2-24.5z" fill="url(#a)"/><image height="446" opacity=".04" transform="translate(417.9272 313.8789)" width="444" xlink:href="14D73117.png"/><path d="m430.8 746.3 29.6-108c-18.2-31.6-27.9-67.5-27.8-104.2 0-115 93.6-208.5 208.6-208.5 55.8 0 108.2 21.7 147.5 61.1 39.4 39.4 61.1 91.8 61 147.5 0 115-93.6 208.5-208.6 208.5h-.1c-34.9 0-69.2-8.8-99.7-25.4zm115.7-66.8 6.3 3.8c26.6 15.8 57.1 24.1 88.2 24.2h.1c95.5 0 173.3-77.7 173.3-173.3 0-46.3-18-89.8-50.7-122.6s-76.3-50.8-122.6-50.8c-95.6 0-173.4 77.7-173.4 173.3 0 32.7 9.1 64.6 26.5 92.2l4.1 6.6-17.5 63.9z" fill="url(#b)"/><image height="222" opacity=".06" transform="translate(522.9271 426.8789)" width="237" xlink:href="14D73110.png"/><path d="m589 446.8c-3.9-8.7-8-8.9-11.7-9-3-.1-6.5-.1-10-.1s-9.1 1.3-13.9 6.5-18.2 17.8-18.2 43.5c0 25.6 18.7 50.4 21.3 53.9s36.1 57.8 89 78.7c44 17.4 53 13.9 62.5 13 9.6-.9 30.8-12.6 35.2-24.8 4.3-12.2 4.3-22.6 3-24.8s-4.8-3.5-10-6.1-30.8-15.2-35.6-17-8.3-2.6-11.7 2.6c-3.5 5.2-13.5 16.9-16.5 20.4s-6.1 3.9-11.3 1.3-22-8.1-41.9-25.9c-15.5-13.8-26-30.9-29-36.1s-.3-8 2.3-10.6c2.3-2.3 5.2-6.1 7.8-9.1s3.5-5.2 5.2-8.7.9-6.5-.4-9.1-11.5-28.3-16.1-38.6z" fill="#fff" fill-rule="evenodd"/></g><path d="m788.6 386.6c-39.4-39.4-91.7-61.1-147.5-61.2-115 0-208.5 93.6-208.6 208.5 0 36.8 9.6 72.6 27.8 104.3l-29.6 108.1 110.6-29c30.5 16.6 64.8 25.4 99.7 25.4h.1c114.9 0 208.5-93.6 208.6-208.6 0-55.7-21.7-108.1-61.1-147.5zm-147.5 320.9c-31.2 0-61.7-8.4-88.3-24.2l-6.3-3.8-65.6 17.2 17.5-64-4.1-6.6c-17.4-27.6-26.5-59.5-26.5-92.2 0-95.6 77.8-173.3 173.4-173.3 46.3 0 89.8 18.1 122.6 50.8 32.7 32.8 50.7 76.3 50.7 122.6-.1 95.7-77.9 173.5-173.4 173.5zm95.1-129.9c-5.2-2.6-30.8-15.2-35.6-17-4.8-1.7-8.3-2.6-11.7 2.6-3.5 5.2-13.5 17-16.5 20.4-3 3.5-6.1 3.9-11.3 1.3s-22-8.1-41.9-25.9c-15.5-13.8-25.9-30.9-29-36.1-3-5.2-.3-8 2.3-10.6 2.3-2.3 5.2-6.1 7.8-9.1s3.5-5.2 5.2-8.7.9-6.5-.4-9.1-11.7-28.3-16.1-38.7c-4.2-10.2-8.5-8.8-11.7-8.9-3-.2-6.5-.2-10-.2s-9.1 1.3-13.9 6.5-18.2 17.8-18.2 43.5 18.7 50.4 21.3 53.9 36.7 56.1 89 78.7c12.4 5.4 22.1 8.6 29.7 11 12.5 4 23.8 3.4 32.8 2.1 10-1.5 30.8-12.6 35.2-24.8 4.3-12.2 4.3-22.6 3-24.8s-4.8-3.5-10-6.1z" fill="#999" fill-rule="evenodd" transform="translate(286.83199 -245.73885)"/><path d="m788.6 386.6c-39.4-39.4-91.7-61.1-147.5-61.2-115 0-208.5 93.6-208.6 208.5 0 36.8 9.6 72.6 27.8 104.3l-29.6 108.1 110.6-29c30.5 16.6 64.8 25.4 99.7 25.4h.1c114.9 0 208.5-93.6 208.6-208.6 0-55.7-21.7-108.1-61.1-147.5zm-147.5 320.9c-31.2 0-61.7-8.4-88.3-24.2l-6.3-3.8-65.6 17.2 17.5-64-4.1-6.6c-17.4-27.6-26.5-59.5-26.5-92.2 0-95.6 77.8-173.3 173.4-173.3 46.3 0 89.8 18.1 122.6 50.8 32.7 32.8 50.7 76.3 50.7 122.6-.1 95.7-77.9 173.5-173.4 173.5zm95.1-129.9c-5.2-2.6-30.8-15.2-35.6-17-4.8-1.7-8.3-2.6-11.7 2.6-3.5 5.2-13.5 17-16.5 20.4-3 3.5-6.1 3.9-11.3 1.3s-22-8.1-41.9-25.9c-15.5-13.8-25.9-30.9-29-36.1-3-5.2-.3-8 2.3-10.6 2.3-2.3 5.2-6.1 7.8-9.1s3.5-5.2 5.2-8.7.9-6.5-.4-9.1-11.7-28.3-16.1-38.7c-4.2-10.2-8.5-8.8-11.7-8.9-3-.2-6.5-.2-10-.2s-9.1 1.3-13.9 6.5-18.2 17.8-18.2 43.5 18.7 50.4 21.3 53.9 36.7 56.1 89 78.7c12.4 5.4 22.1 8.6 29.7 11 12.5 4 23.8 3.4 32.8 2.1 10-1.5 30.8-12.6 35.2-24.8 4.3-12.2 4.3-22.6 3-24.8s-4.8-3.5-10-6.1z" fill="#25d366" fill-rule="evenodd" transform="translate(-294.9605 256.13709)"/><text font-family="sans-serif" font-size="40" letter-spacing="0" word-spacing="0" x="702.97864" y="716.54089"><tspan x="702.97864" y="716.54089">logodownload.org</tspan></text></svg>